<svg width="17" height="17" viewBox="0 0 17 17" fill="none" xmlns="http://www.w3.org/2000/svg">
    <path fill-rule="evenodd" clip-rule="evenodd" d="M2 7.5C2 4.46243 4.46243 2 7.5 2C10.5376 2 13 4.46243 13 7.5C13 10.5376 10.5376 13 7.5 13C4.46243 13 2 10.5376 2 7.5ZM7.5 0C3.35786 0 0 3.35786 0 7.5C0 11.6421 3.35786 15 7.5 15C9.2104 15 10.7872 14.4274 12.0489 13.4635L14.7925 16.2071C15.183 16.5976 15.8162 16.5976 16.2067 16.2071C16.5972 15.8166 16.5972 15.1834 16.2067 14.7929L13.4632 12.0493C14.4273 10.7875 15 9.2106 15 7.5C15 3.35786 11.6421 0 7.5 0Z" fill="#FF6647"/>
</svg>
